<mxfile host="65bd71144e">
    <diagram id="y7LyX2alFGtX07KHJ8K6" name="Page-1">
        <mxGraphModel dx="580" dy="312" grid="1" gridSize="10" guides="1" tooltips="1" connect="1" arrows="1" fold="1" page="1" pageScale="1" pageWidth="850" pageHeight="1100" math="0" shadow="0">
            <root>
                <mxCell id="0"/>
                <mxCell id="1" parent="0"/>
                <mxCell id="5" value="" style="ellipse;whiteSpace=wrap;html=1;fillColor=#ffcc99;strokeColor=#36393d;fontColor=#000000;" parent="1" vertex="1">
                    <mxGeometry x="422.5" y="940" width="40" height="40" as="geometry"/>
                </mxCell>
                <mxCell id="62" style="edgeStyle=none;html=1;" parent="1" source="101" target="106" edge="1">
                    <mxGeometry relative="1" as="geometry">
                        <mxPoint x="1589.73" y="520" as="targetPoint"/>
                        <Array as="points"/>
                        <mxPoint x="1225.0423076923075" y="840" as="sourcePoint"/>
                    </mxGeometry>
                </mxCell>
                <mxCell id="71" style="edgeStyle=none;html=1;entryX=0.5;entryY=0;entryDx=0;entryDy=0;" parent="1" source="70" target="5" edge="1">
                    <mxGeometry relative="1" as="geometry">
                        <mxPoint x="442.50999999999976" y="829.9999999999998" as="targetPoint"/>
                    </mxGeometry>
                </mxCell>
                <mxCell id="70" value="set«&quot;scope.config_meta&quot;;true»" style="rounded=1;whiteSpace=wrap;fillColor=#cce5ff;strokeColor=#36393d;fontColor=#000000;" parent="1" vertex="1">
                    <mxGeometry x="326.44" y="870" width="232.13" height="40" as="geometry"/>
                </mxCell>
                <mxCell id="99" style="edgeStyle=none;html=1;fontColor=#050505;exitX=0.5;exitY=1;exitDx=0;exitDy=0;" parent="1" source="105" target="110" edge="1">
                    <mxGeometry relative="1" as="geometry">
                        <mxPoint x="587.51" y="120" as="targetPoint"/>
                        <Array as="points"/>
                        <mxPoint x="502.5" y="60" as="sourcePoint"/>
                    </mxGeometry>
                </mxCell>
                <mxCell id="101" value="timeline«&quot;timelineSpeech&quot;;0;${metadata.videoMeta.seconds};${args.step.timelineSpeech};${args.step.timelineNSpeech}»" style="rounded=1;whiteSpace=wrap;fillColor=#cce5ff;strokeColor=#36393d;fontColor=#000000;" parent="1" vertex="1">
                    <mxGeometry x="911" y="450" width="779" height="40" as="geometry"/>
                </mxCell>
                <mxCell id="105" value="start" style="ellipse;whiteSpace=wrap;html=1;fillColor=#b0e3e6;strokeColor=#0e8088;fontColor=#050505;" parent="1" vertex="1">
                    <mxGeometry x="422.5" y="20" width="40" height="40" as="geometry"/>
                </mxCell>
                <mxCell id="109" style="edgeStyle=none;html=1;" parent="1" source="106" target="108" edge="1">
                    <mxGeometry relative="1" as="geometry"/>
                </mxCell>
                <mxCell id="106" value="timeline«&quot;timelineFace&quot;;0;${metadata.videoMeta.seconds};${args.step.timelineFace};${args.step.timelineNFace}»" style="rounded=1;whiteSpace=wrap;fillColor=#cce5ff;strokeColor=#36393d;fontColor=#000000;" parent="1" vertex="1">
                    <mxGeometry x="910" y="520" width="780" height="40" as="geometry"/>
                </mxCell>
                <mxCell id="136" style="edgeStyle=none;html=1;entryX=0.5;entryY=0;entryDx=0;entryDy=0;" edge="1" parent="1" source="108" target="124">
                    <mxGeometry relative="1" as="geometry">
                        <Array as="points">
                            <mxPoint x="1300" y="690"/>
                            <mxPoint x="442" y="690"/>
                        </Array>
                    </mxGeometry>
                </mxCell>
                <mxCell id="108" value="timeline«&quot;timelinePlate&quot;;0;${metadata.videoMeta.seconds};${args.step.timelinePlate};${args.step.timelineNPlate}»" style="rounded=1;whiteSpace=wrap;fillColor=#cce5ff;strokeColor=#36393d;fontColor=#000000;" parent="1" vertex="1">
                    <mxGeometry x="910" y="590" width="780" height="40" as="geometry"/>
                </mxCell>
                <mxCell id="111" style="edgeStyle=none;html=1;" parent="1" source="110" target="122" edge="1">
                    <mxGeometry relative="1" as="geometry">
                        <mxPoint x="442" y="240" as="sourcePoint"/>
                        <mxPoint x="442.5" y="230.00000000000006" as="targetPoint"/>
                    </mxGeometry>
                </mxCell>
                <mxCell id="114" value="process«&quot;localFiles1.metavideo&quot;»" style="edgeLabel;align=center;verticalAlign=middle;resizable=0;points=[];fontSize=12;" parent="111" vertex="1" connectable="0">
                    <mxGeometry x="-0.4777" y="-1" relative="1" as="geometry">
                        <mxPoint x="1" y="14" as="offset"/>
                    </mxGeometry>
                </mxCell>
                <mxCell id="110" value="tic«&quot;metric&quot;»&#10;postgres«&quot;execute&quot;;&#10;&quot;args.db&quot;;&quot;args.db&quot;;&#10;&quot;srv/wideSight/sql/reads/video_by_id.sql&quot;;&#10;&quot;args.sql&quot;;true»" style="rounded=1;whiteSpace=wrap;fillColor=#ffff88;strokeColor=#36393d;fontColor=#000000;" parent="1" vertex="1">
                    <mxGeometry x="292.5" y="90" width="300" height="90" as="geometry"/>
                </mxCell>
                <mxCell id="129" style="edgeStyle=none;html=1;entryX=0.5;entryY=0;entryDx=0;entryDy=0;" edge="1" parent="1" source="115" target="124">
                    <mxGeometry relative="1" as="geometry">
                        <Array as="points">
                            <mxPoint x="176" y="690"/>
                            <mxPoint x="443" y="690"/>
                        </Array>
                    </mxGeometry>
                </mxCell>
                <mxCell id="115" value="postgres«&quot;execute&quot;;&#10;&quot;args.db&quot;;&quot;metadata.videoMeta&quot;;&#10;&quot;srv/wideSight/sql/updates/video_meta.sql&quot;»" style="rounded=1;whiteSpace=wrap;fillColor=#ffff88;strokeColor=#36393d;fontColor=#000000;" parent="1" vertex="1">
                    <mxGeometry x="26.439999999999998" y="490" width="300" height="70" as="geometry"/>
                </mxCell>
                <mxCell id="130" style="edgeStyle=none;html=1;entryX=0.5;entryY=0;entryDx=0;entryDy=0;" edge="1" parent="1" source="118" target="124">
                    <mxGeometry relative="1" as="geometry">
                        <Array as="points">
                            <mxPoint x="480" y="690"/>
                            <mxPoint x="443" y="690"/>
                        </Array>
                    </mxGeometry>
                </mxCell>
                <mxCell id="118" value="postgres«&quot;execute&quot;;&#10;&quot;args.db&quot;;&quot;args.db&quot;;&#10;&quot;srv/wideSight/sql/reads/video_by_id.sql&quot;;&#10;&quot;args.sql&quot;;true»" style="rounded=1;whiteSpace=wrap;fillColor=#ffff88;strokeColor=#36393d;fontColor=#000000;" parent="1" vertex="1">
                    <mxGeometry x="352.5" y="415" width="257.5" height="70" as="geometry"/>
                </mxCell>
                <mxCell id="125" style="edgeStyle=none;html=1;entryX=0.5;entryY=0;entryDx=0;entryDy=0;" edge="1" parent="1" source="122" target="115">
                    <mxGeometry relative="1" as="geometry">
                        <Array as="points">
                            <mxPoint x="443" y="380"/>
                            <mxPoint x="176" y="380"/>
                        </Array>
                    </mxGeometry>
                </mxCell>
                <mxCell id="126" style="edgeStyle=none;html=1;entryX=0.5;entryY=0;entryDx=0;entryDy=0;" edge="1" parent="1" source="122" target="118">
                    <mxGeometry relative="1" as="geometry">
                        <Array as="points">
                            <mxPoint x="443" y="380"/>
                            <mxPoint x="481" y="380"/>
                        </Array>
                    </mxGeometry>
                </mxCell>
                <mxCell id="127" style="edgeStyle=none;html=1;entryX=0.5;entryY=0;entryDx=0;entryDy=0;" edge="1" parent="1" source="122" target="123">
                    <mxGeometry relative="1" as="geometry">
                        <Array as="points">
                            <mxPoint x="443" y="380"/>
                            <mxPoint x="725" y="380"/>
                        </Array>
                    </mxGeometry>
                </mxCell>
                <mxCell id="128" style="edgeStyle=none;html=1;entryX=0.5;entryY=0;entryDx=0;entryDy=0;" edge="1" parent="1" source="122" target="101">
                    <mxGeometry relative="1" as="geometry">
                        <Array as="points">
                            <mxPoint x="443" y="380"/>
                            <mxPoint x="1300" y="380"/>
                        </Array>
                    </mxGeometry>
                </mxCell>
                <mxCell id="122" value="" style="ellipse;whiteSpace=wrap;html=1;fillColor=#b0e3e6;strokeColor=#0e8088;fontColor=#050505;" vertex="1" parent="1">
                    <mxGeometry x="423" y="310" width="40" height="40" as="geometry"/>
                </mxCell>
                <mxCell id="131" style="edgeStyle=none;html=1;entryX=0.5;entryY=0;entryDx=0;entryDy=0;" edge="1" parent="1" source="123" target="141">
                    <mxGeometry relative="1" as="geometry">
                        <mxPoint x="800" y="490" as="targetPoint"/>
                        <Array as="points"/>
                    </mxGeometry>
                </mxCell>
                <mxCell id="132" value="process«&quot;localFiles4.read&quot;»" style="edgeLabel;align=center;verticalAlign=middle;resizable=0;points=[];" vertex="1" connectable="0" parent="131">
                    <mxGeometry x="-0.2734" y="4" relative="1" as="geometry">
                        <mxPoint x="-4" y="-4" as="offset"/>
                    </mxGeometry>
                </mxCell>
                <mxCell id="123" value="" style="ellipse;whiteSpace=wrap;html=1;fillColor=#b0e3e6;strokeColor=#0e8088;fontColor=#050505;" vertex="1" parent="1">
                    <mxGeometry x="705" y="430" width="40" height="40" as="geometry"/>
                </mxCell>
                <mxCell id="135" style="edgeStyle=none;html=1;" edge="1" parent="1" source="124" target="70">
                    <mxGeometry relative="1" as="geometry"/>
                </mxCell>
                <mxCell id="124" value="" style="ellipse;whiteSpace=wrap;html=1;fillColor=#60a917;strokeColor=#2D7600;fontColor=#ffffff;" vertex="1" parent="1">
                    <mxGeometry x="422.5" y="780" width="40" height="40" as="geometry"/>
                </mxCell>
                <mxCell id="134" style="edgeStyle=none;html=1;entryX=0.5;entryY=0;entryDx=0;entryDy=0;exitX=0.5;exitY=1;exitDx=0;exitDy=0;" edge="1" parent="1" source="141" target="124">
                    <mxGeometry relative="1" as="geometry">
                        <mxPoint x="820" y="670" as="sourcePoint"/>
                        <Array as="points">
                            <mxPoint x="725" y="690"/>
                            <mxPoint x="443" y="690"/>
                        </Array>
                    </mxGeometry>
                </mxCell>
                <mxCell id="141" value="minio«&quot;write&quot;;&#10;&quot;${minio.bucket}&quot;;&#10;&quot;thumbnails/${args.db.accountId}/${args.db.mediaId}.png&quot;;&#10;&quot;b.localFiles.videoThumbnail&quot;;&#10;(${minio.metadata})»" style="rounded=1;whiteSpace=wrap;fillColor=#ffff88;strokeColor=#36393d;fontColor=#000000;" vertex="1" parent="1">
                    <mxGeometry x="550" y="560" width="350" height="90" as="geometry"/>
                </mxCell>
            </root>
        </mxGraphModel>
    </diagram>
</mxfile>